<?xml version="1.0" standalone="no"?><!DOCTYPE svg PUBLIC "-//W3C//DTD SVG 1.1//EN"
        "http://www.w3.org/Graphics/SVG/1.1/DTD/svg11.dtd">
<svg xmlns:xlink="http://www.w3.org/1999/xlink" t="1577517709589" class="icon" viewBox="0 0 1137 1024" version="1.1"
     xmlns="http://www.w3.org/2000/svg" p-id="2549" width="142.125" height="128">
    <defs>
        <style type="text/css"></style>
    </defs>
    <path d="M1066.760791 910.409978h-153.540412l0.622557 113.590022-227.67809-113.590022H414.658723a71.149403 71.149403 0 0 1-71.149404-71.149404v-540.735465a71.149403 71.149403 0 0 1 71.149404-71.149403h652.102068a71.149403 71.149403 0 0 1 71.149404 71.149403v540.735465a71.149403 71.149403 0 0 1-71.149404 71.149404z"
          fill="#2674FD" p-id="2550"></path>
    <path d="M723.251472 683.034272H455.356181l-227.67809 113.358787-1.778735-113.358787H71.149403a71.149403 71.149403 0 0 1-71.149403-71.149403V71.149403A71.149403 71.149403 0 0 1 71.149403 0h652.102069a71.149403 71.149403 0 0 1 71.149403 71.149403v540.735466a71.149403 71.149403 0 0 1-71.149403 71.149403z"
          fill="#FFE41F" p-id="2551"></path>
    <path d="M158.040612 341.01909m-71.149403 0a71.149403 71.149403 0 1 0 142.298806 0 71.149403 71.149403 0 1 0-142.298806 0Z"
          fill="#FFFFFF" p-id="2552"></path>
    <path d="M642.621411 341.01909m-71.149403 0a71.149403 71.149403 0 1 0 142.298806 0 71.149403 71.149403 0 1 0-142.298806 0Z"
          fill="#FFFFFF" p-id="2553"></path>
    <path d="M399.806285 339.240355m-71.149404 0a71.149403 71.149403 0 1 0 142.298807 0 71.149403 71.149403 0 1 0-142.298807 0Z"
          fill="#FFFFFF" p-id="2554"></path>
</svg>
