<?xml version="1.0" standalone="no"?><!DOCTYPE svg PUBLIC "-//W3C//DTD SVG 1.1//EN"
        "http://www.w3.org/Graphics/SVG/1.1/DTD/svg11.dtd">
<svg xmlns:xlink="http://www.w3.org/1999/xlink" t="1577332791138" class="icon" viewBox="0 0 1024 1024" version="1.1"
     xmlns="http://www.w3.org/2000/svg" p-id="1393" width="128" height="128">
    <defs>
        <style type="text/css"></style>
    </defs>
    <path d="M1024 467.2c-6.4-25.6-38.4-44.8-64-44.8l-172.8 0C774.4 326.4 684.8 256 576 256L524.8 256 492.8 256l-128 0C262.4 256 172.8 326.4 160 422.4L70.4 422.4C32 422.4 0 454.4 0 492.8l0 102.4c0 38.4 38.4 70.4 70.4 70.4l25.6 0L96 633.6 70.4 633.6c-19.2 0-38.4-19.2-38.4-38.4L32 492.8c0-19.2 19.2-38.4 38.4-38.4l83.2 0 339.2 0 0 179.2L396.8 633.6l0 32 96 0 32 0 128 0L652.8 633.6l-128 0L524.8 454.4l268.8 0L960 454.4c12.8 0 25.6 12.8 32 25.6 0 0 0 0 0 0 0 0 0 0 0 6.4 0 0 0 6.4 0 6.4l0 102.4c0 19.2-12.8 38.4-32 38.4l-19.2 0 0 32L960 665.6c38.4 0 64-38.4 64-70.4L1024 492.8c0 0 0-6.4 0-6.4 0 0 0 0 0 0C1024 480 1024 473.6 1024 467.2zM192 422.4c12.8-76.8 89.6-134.4 179.2-134.4l128 0 0 134.4L192 422.4zM524.8 422.4 524.8 288 576 288c89.6 0 166.4 57.6 179.2 134.4L524.8 422.4z"
          p-id="1394"></path>
    <path d="M787.2 531.2c-19.2 0-32 6.4-51.2 12.8-25.6 12.8-44.8 32-57.6 57.6-6.4 12.8-12.8 25.6-12.8 38.4 0 0 0 6.4 0 6.4 0 0 0 6.4 0 6.4 6.4 64 57.6 108.8 115.2 108.8s115.2-51.2 115.2-108.8c0 0 0-6.4 0-6.4 0 0 0-6.4 0-6.4C902.4 576 851.2 531.2 787.2 531.2zM876.8 652.8c0 44.8-38.4 83.2-89.6 83.2S704 704 704 652.8c0 0 0-6.4 0-6.4 0 0 0-6.4 0-6.4 0-12.8 6.4-19.2 6.4-32 6.4-19.2 25.6-32 44.8-44.8 12.8-6.4 25.6-6.4 38.4-6.4 44.8 0 83.2 38.4 89.6 83.2C876.8 646.4 876.8 646.4 876.8 652.8 876.8 652.8 876.8 652.8 876.8 652.8z"
          p-id="1395"></path>
    <path d="M787.2 646.4m-32 0a0.5 0.5 0 1 0 64 0 0.5 0.5 0 1 0-64 0Z" p-id="1396"></path>
    <path d="M249.6 531.2c-19.2 0-32 6.4-51.2 12.8C172.8 550.4 153.6 576 140.8 601.6 134.4 614.4 128 627.2 128 640c0 0 0 6.4 0 6.4 0 0 0 6.4 0 6.4 6.4 64 57.6 108.8 115.2 108.8s115.2-51.2 115.2-108.8c0 0 0-6.4 0-6.4 0 0 0-6.4 0-6.4C358.4 576 307.2 531.2 249.6 531.2zM332.8 652.8c0 44.8-38.4 83.2-89.6 83.2S160 704 160 652.8c0 0 0-6.4 0-6.4 0 0 0-6.4 0-6.4 0-12.8 6.4-19.2 6.4-32C172.8 595.2 192 576 211.2 569.6c12.8-6.4 25.6-6.4 38.4-6.4 44.8 0 83.2 38.4 89.6 83.2C332.8 646.4 332.8 646.4 332.8 652.8 332.8 652.8 332.8 652.8 332.8 652.8z"
          p-id="1397"></path>
    <path d="M243.2 646.4m-32 0a0.5 0.5 0 1 0 64 0 0.5 0.5 0 1 0-64 0Z" p-id="1398"></path>
</svg>
