<?xml version="1.0" standalone="no"?><!DOCTYPE svg PUBLIC "-//W3C//DTD SVG 1.1//EN"
        "http://www.w3.org/Graphics/SVG/1.1/DTD/svg11.dtd">
<svg xmlns:xlink="http://www.w3.org/1999/xlink" t="1578110593829" class="icon" viewBox="0 0 1024 1024" version="1.1"
     xmlns="http://www.w3.org/2000/svg" p-id="2493" width="128" height="128">
    <defs>
        <style type="text/css"></style>
    </defs>
    <path d="M767.25472 144.448c31.36 22.4 59.2 47.68 83.52 75.904 24.32 28.288 45.248 58.88 62.72 91.648a462.72 462.72 0 0 1 53.248 215.68 453.632 453.632 0 0 1-37.12 182.72 477.952 477.952 0 0 1-100.224 148.672 477.504 477.504 0 0 1-148.288 100.48 451.008 451.008 0 0 1-182.208 37.12c-64 0-124.352-12.416-181.12-37.12a483.456 483.456 0 0 1-148.736-100.48 465.792 465.792 0 0 1-123.712-440.32 483.392 483.392 0 0 1 37.12-101.504c16-32.128 35.84-62.144 59.456-90.048 23.68-27.968 50.112-53.12 79.36-75.392 15.296-11.2 31.808-15.36 49.6-12.544 17.728 2.752 32.128 11.52 43.264 26.112 11.2 14.72 15.36 31.104 12.608 49.28-2.816 18.112-11.52 32.768-26.176 43.904A325.12 325.12 0 0 0 199.83072 376.96a333.312 333.312 0 0 0-34.944 150.784c0 46.08 8.704 89.6 26.048 130.304a338.048 338.048 0 0 0 71.552 106.88c30.272 30.272 65.728 54.4 106.432 72.128a320.832 320.832 0 0 0 130.048 26.816c45.888 0 89.28-8.96 129.92-26.816a342.464 342.464 0 0 0 106.496-72.128 344.192 344.192 0 0 0 72.064-106.88 322.688 322.688 0 0 0 26.624-130.304c0-54.464-12.544-105.92-37.568-154.432a326.016 326.016 0 0 0-105.472-119.872 63.104 63.104 0 0 1-27.648-42.944 66.56 66.56 0 0 1 10.944-50.24 64 64 0 0 1 42.88-26.688c18.048-3.2 34.752 0.512 50.048 10.944zM498.90272 530.816a63.296 63.296 0 0 1-46.4-19.328 63.68 63.68 0 0 1-19.328-46.656V67.008c0-18.176 6.4-33.856 19.328-47.104 12.8-13.248 28.352-19.904 46.4-19.904 18.816 0 34.688 6.656 47.552 19.84 12.864 13.312 19.328 28.992 19.328 47.168v397.824c0 18.176-6.4 33.728-19.328 46.656a64.64 64.64 0 0 1-47.552 19.328z"
          fill="#358CF3" p-id="2494"></path>
</svg>
