<?xml version="1.0" standalone="no"?><!DOCTYPE svg PUBLIC "-//W3C//DTD SVG 1.1//EN"
        "http://www.w3.org/Graphics/SVG/1.1/DTD/svg11.dtd">
<svg xmlns:xlink="http://www.w3.org/1999/xlink" t="1578110601009" class="icon" viewBox="0 0 1024 1024" version="1.1"
     xmlns="http://www.w3.org/2000/svg" p-id="2628" width="128" height="128">
    <defs>
        <style type="text/css"></style>
    </defs>
    <path d="M512 938.666667A426.666667 426.666667 0 1 0 512 85.333333a426.666667 426.666667 0 0 0 0 853.333334z m0 85.333333A512 512 0 1 1 512 0a512 512 0 0 1 0 1024z m0-810.666667a42.666667 42.666667 0 0 0-85.333333 0v347.477334a42.666667 42.666667 0 0 0 42.666666 42.666666h229.290667a42.666667 42.666667 0 1 0 0-85.333333H512V213.333333z"
          p-id="2629"></path>
</svg>
