<?xml version="1.0" standalone="no"?><!DOCTYPE svg PUBLIC "-//W3C//DTD SVG 1.1//EN"
        "http://www.w3.org/Graphics/SVG/1.1/DTD/svg11.dtd">
<svg xmlns:xlink="http://www.w3.org/1999/xlink" t="1578020069839" class="icon" viewBox="0 0 1024 1024" version="1.1"
     xmlns="http://www.w3.org/2000/svg" p-id="5222" width="400" height="400">
    <defs>
        <style type="text/css"></style>
    </defs>
    <path d="M512 1024c-281.6 0-512-230.4-512-512s230.4-512 512-512 512 230.4 512 512-230.4 512-512 512zM512 32C249.6 32 32 249.6 32 512s211.2 480 480 480 480-211.2 480-480S774.4 32 512 32zM422.4 704c-19.2 0-32-6.4-44.8-19.2L230.4 544c-6.4-12.8-6.4-19.2 0-32s19.2-6.4 25.6 0l147.2 147.2c12.8 12.8 25.6 12.8 38.4 0L774.4 320c6.4-6.4 19.2-6.4 25.6 0s6.4 19.2 0 25.6l-339.2 339.2c-6.4 12.8-25.6 19.2-38.4 19.2z"
          fill="" p-id="5223"></path>
</svg>
